{"title":"Highway.Patrol.AU.S07E10.WEBRip.x264-bilby","uid":12219286,"size":160172200,"categoryP":"video","categoryS":"tv_shows","magnet":"?xt=urn:btih:ea75626e026ea67b1b82a421a7c9b25b2145b77b&amp;dn=Highway.Patrol.AU.S07E10.WEBRip.x264-bilby&amp;tr=udp%3A%2F%2Ftracker.openbittorrent.com%3A80&amp;tr=udp%3A%2F%2Fopen.demonii.com%3A1337&amp;tr=udp%3A%2F%2Ftracker.coppersurfer.tk%3A6969&amp;tr=udp%3A%2F%2Fexodus.desync.com%3A6969","seeders":1,"leechers":0,"uploader":"toots2boots","files":1,"time":1439324373,"description":"Highway.Patrol.AU.S07E10.WEBRip.x264-bilby.mp4\nGeneral\nComplete name                            : M:PostsHighway.Patrol.AU.S07E10.WEBRip.x264-bilbyHighway.Patrol.AU.S07E10.WEBRip.x264-bilby.mp4\nFormat                                   : MPEG-4\nFormat profile                           : Base Media / Version 2\nCodec ID                                 : mp42\nFile size                                : 153 MiB\nDuration                                 : 21mn 33s\nOverall bit rate mode                    : Variable\nOverall bit rate                         : 991 Kbps\nEncoded date                             : UTC 2015-08-11 03:48:35\nTagged date                              : UTC 2015-08-11 03:57:02\nWriting application                      : HandBrake 0.9.9 2013052900\n\nVideo\nID                                       : 1\nFormat                                   : AVC\nFormat/Info                              : Advanced Video Codec\nFormat profile                           : &lt;a class=&quot;__cf_email__&quot; href=&quot;/cdn-cgi/l/email-protection&quot; data-cfemail=&quot;115c70787f515d253f21&quot;&gt;[email&amp;#160;protected]&lt;/a&gt;&lt;script data-cfhash='f9e31' type=&quot;text/javascript&quot;&gt;\n/* &lt;![CDATA[ */!function(){try{var t=&quot;currentScript&quot;in document?document.currentScript:function(){for(var t=document.getElementsByTagName(&quot;script&quot;),e=t.length;e--;)if(t[e].getAttribute(&quot;data-cfhash&quot;))return t[e]}();if(t&amp;&amp;t.previousSibling){var e,r,n,i,c=t.previousSibling,a=c.getAttribute(&quot;data-cfemail&quot;);if(a){for(e=&quot;&quot;,r=parseInt(a.substr(0,2),16),n=2;a.length-n;n+=2)i=parseInt(a.substr(n,2),16)^r,e+=String.fromCharCode(i);e=document.createTextNode(e),c.parentNode.replaceChild(e,c)}t.parentNode.removeChild(t);}}catch(u){}}()/* ]]&gt; */&lt;/script&gt;\nFormat settings, CABAC                   : Yes\nFormat settings, ReFrames                : 4 frames\nCodec ID                                 : avc1\nCodec ID/Info                            : Advanced Video Coding\nDuration                                 : 21mn 33s\nBit rate mode                            : Variable\nBit rate                                 : 826 Kbps\nWidth                                    : 630 pixels\nHeight                                   : 354 pixels\nDisplay aspect ratio                     : 16:9\nFrame rate mode                          : Variable\nFrame rate                               : 25.014 fps\nMinimum frame rate                       : 13.144 fps\nMaximum frame rate                       : 3 000.000 fps\nColor space                              : YUV\nChroma subsampling                       : 4:2:0\nBit depth                                : 8 bits\nScan type                                : Progressive\nBits/(Pixel*Frame)                       : 0.148\nStream size                              : 127 MiB (83%)\nWriting library                          : x264 core 130 r2273 b3065e6\nEncoding settings                        : cabac=1 / ref=1 / deblock=1:0:0 / analyse=0x1:0x111 / me=hex / subme=2 / psy=1 / psy_rd=1.00:0.00 / mixed_ref=0 / me_range=16 / chroma_me=1 / trellis=0 / 8x8dct=0 / cqm=0 / deadzone=21,11 / fast_pskip=1 / chroma_qp_offset=0 / threads=3 / lookahead_threads=1 / sliced_threads=0 / nr=0 / decimate=1 / interlaced=0 / bluray_compat=0 / constrained_intra=0 / bframes=3 / b_pyramid=2 / b_adapt=1 / b_bias=0 / direct=1 / weightb=1 / open_gop=0 / weightp=1 / keyint=250 / keyint_min=25 / scenecut=40 / intra_refresh=0 / rc_lookahead=10 / rc=crf / mbtree=1 / crf=20.0 / qcomp=0.60 / qpmin=0 / qpmax=69 / qpstep=4 / vbv_maxrate=20000 / vbv_bufsize=25000 / crf_max=0.0 / nal_hrd=none / ip_ratio=1.40 / aq=1:1.00\nEncoded date                             : UTC 2015-08-11 03:48:35\nTagged date                              : UTC 2015-08-11 03:57:02\nColor primaries                          : BT.470-6 System B, BT.470-6 System G, BT.601-6 625, BT.1358 625, BT.1700 625 PAL, BT.1700 625 SECAM\nTransfer characteristics                 : BT.709-5, BT.1361\nMatrix coefficients                      : BT.601-6 525, BT.1358 525, BT.1700 NTSC, SMPTE 170M\n\nAudio\nID                                       : 2\nFormat                                   : AAC\nFormat/Info                              : Advanced Audio Codec\nFormat profile                           : LC\nCodec ID                                 : 40\nDuration                                 : 21mn 33s\nBit rate mode                            : Variable\nBit rate                                 : 160 Kbps\nMaximum bit rate                         : 307 Kbps\nChannel(s)                               : 2 channels\nChannel positions                        : Front: L R\nSampling rate                            : 48.0 KHz\nCompression mode                         : Lossy\nStream size                              : 24.7 MiB (16%)\nEncoded date                             : UTC 2015-08-11 03:48:35\nTagged date                              : UTC 2015-08-11 03:57:02","torrent":{"xt":"urn:btih:ea75626e026ea67b1b82a421a7c9b25b2145b77b","amp;dn":"Highway.Patrol.AU.S07E10.WEBRip.x264-bilby","amp;tr":["udp%3A%2F%2Ftracker.openbittorrent.com%3A80","udp%3A%2F%2Fopen.demonii.com%3A1337","udp%3A%2F%2Ftracker.coppersurfer.tk%3A6969","udp%3A%2F%2Fexodus.desync.com%3A6969"],"infoHash":"ea75626e026ea67b1b82a421a7c9b25b2145b77b","infoHashBuffer":{"type":"Buffer","data":[234,117,98,110,2,110,166,123,27,130,164,33,167,201,178,91,33,69,183,123]},"announce":[],"urlList":[]}}